<svg xmlns="http://www.w3.org/2000/svg" viewBox="0 0 500 400">
  <circle cx="250" cy="200" r="160" fill="#f0f1ff" opacity="0.4"/>

  <!-- Dashboard frame -->
  <rect x="80" y="60" width="340" height="280" rx="12" fill="#fff" stroke="#e0e0ee" stroke-width="2"/>

  <!-- Top bar -->
  <rect x="80" y="60" width="340" height="40" rx="12" fill="#18216d"/>
  <rect x="80" y="88" width="340" height="12" fill="#18216d"/>
  <circle cx="103" cy="80" r="6" fill="#ff5f57"/>
  <circle cx="123" cy="80" r="6" fill="#febc2e"/>
  <circle cx="143" cy="80" r="6" fill="#28c840"/>
  <rect x="200" y="74" width="140" height="12" rx="6" fill="rgba(255,255,255,0.2)"/>

  <!-- Chart area -->
  <rect x="100" y="120" width="200" height="120" rx="6" fill="#f8f9ff"/>

  <!-- Bar chart -->
  <rect x="120" y="200" width="20" height="30" rx="3" fill="#61DAFB" opacity="0.7"/>
  <rect x="150" y="180" width="20" height="50" rx="3" fill="#61DAFB" opacity="0.8"/>
  <rect x="180" y="165" width="20" height="65" rx="3" fill="#ff825c" opacity="0.8"/>
  <rect x="210" y="150" width="20" height="80" rx="3" fill="#ff825c"/>
  <rect x="240" y="140" width="20" height="90" rx="3" fill="#18216d"/>
  <rect x="270" y="130" width="20" height="100" rx="3" fill="#18216d"/>

  <!-- Side stats -->
  <rect x="320" y="120" width="80" height="55" rx="6" fill="#f8f9ff"/>
  <text x="335" y="142" font-family="sans-serif" font-size="10" fill="#6b6b8d">Readers</text>
  <text x="335" y="163" font-family="sans-serif" font-size="18" font-weight="bold" fill="#18216d">12.4k</text>

  <rect x="320" y="185" width="80" height="55" rx="6" fill="#f8f9ff"/>
  <text x="335" y="207" font-family="sans-serif" font-size="10" fill="#6b6b8d">Articles</text>
  <text x="335" y="228" font-family="sans-serif" font-size="18" font-weight="bold" fill="#ff825c">128</text>

  <!-- Bottom section - recent items -->
  <rect x="100" y="255" width="300" height="22" rx="4" fill="#f8f9ff"/>
  <rect x="108" y="261" width="8" height="8" rx="4" fill="#39d353"/>
  <rect x="122" y="261" width="100" height="8" rx="4" fill="#d0d0e0"/>
  <rect x="340" y="261" width="50" height="8" rx="4" fill="#d0d0e0" opacity="0.5"/>

  <rect x="100" y="283" width="300" height="22" rx="4" fill="#f8f9ff"/>
  <rect x="108" y="289" width="8" height="8" rx="4" fill="#61DAFB"/>
  <rect x="122" y="289" width="120" height="8" rx="4" fill="#d0d0e0"/>
  <rect x="340" y="289" width="40" height="8" rx="4" fill="#d0d0e0" opacity="0.5"/>

  <rect x="100" y="311" width="300" height="22" rx="4" fill="#f8f9ff"/>
  <rect x="108" y="317" width="8" height="8" rx="4" fill="#ff825c"/>
  <rect x="122" y="317" width="80" height="8" rx="4" fill="#d0d0e0"/>
  <rect x="340" y="317" width="45" height="8" rx="4" fill="#d0d0e0" opacity="0.5"/>

  <!-- Trend arrow -->
  <path d="M430 140 L445 110 L460 140" stroke="#39d353" stroke-width="3" fill="none" stroke-linecap="round" stroke-linejoin="round"/>
  <line x1="445" y1="110" x2="445" y2="155" stroke="#39d353" stroke-width="3" stroke-linecap="round"/>
</svg>
