<svg xmlns="http://www.w3.org/2000/svg" width="25" height="25" viewBox="0 0 1043.63 592.71">
  <g fill="#18216d">
    <path d="M588.67 296.36c0 163.67-131.78 296.35-294.33 296.35S0 460 0 296.36 131.78 0 294.34 0s294.33 132.69 294.33 296.36"/>
    <path d="M911.56 296.36c0 154.06-65.89 278.86-147.17 278.86s-147.17-124.8-147.17-278.86S683.11 17.5 764.39 17.5s147.17 124.8 147.17 278.86"/>
    <path d="M1043.63 296.36c0 138-23.17 249.94-51.76 249.94s-51.75-111.91-51.75-249.94 23.17-249.94 51.75-249.94 51.76 111.9 51.76 249.94"/>
  </g>
</svg>
