<svg xmlns="http://www.w3.org/2000/svg" viewBox="0 0 500 400">
  <circle cx="250" cy="200" r="160" fill="#f0f1ff" opacity="0.4"/>

  <!-- Community / people connected -->
  <!-- Central hub -->
  <circle cx="250" cy="190" r="40" fill="#18216d" opacity="0.1"/>
  <circle cx="250" cy="190" r="25" fill="#18216d"/>
  <text x="237" y="197" font-family="monospace" font-size="20" fill="#fff">&lt;/&gt;</text>

  <!-- Person 1 - top left -->
  <circle cx="150" cy="120" r="22" fill="#ff825c" opacity="0.15"/>
  <circle cx="150" cy="120" r="15" fill="#ff825c"/>
  <text x="143" y="125" font-family="sans-serif" font-size="14" fill="#fff">JS</text>
  <line x1="168" y1="132" x2="228" y2="172" stroke="#ff825c" stroke-width="2" opacity="0.3" stroke-dasharray="4,4"/>

  <!-- Person 2 - top right -->
  <circle cx="350" cy="110" r="22" fill="#61DAFB" opacity="0.15"/>
  <circle cx="350" cy="110" r="15" fill="#61DAFB"/>
  <text x="340" y="115" font-family="sans-serif" font-size="12" fill="#fff">Re</text>
  <line x1="332" y1="122" x2="272" y2="172" stroke="#61DAFB" stroke-width="2" opacity="0.3" stroke-dasharray="4,4"/>

  <!-- Person 3 - left -->
  <circle cx="120" cy="230" r="22" fill="#3178C6" opacity="0.15"/>
  <circle cx="120" cy="230" r="15" fill="#3178C6"/>
  <text x="110" y="235" font-family="sans-serif" font-size="12" fill="#fff">TS</text>
  <line x1="138" y1="222" x2="228" y2="198" stroke="#3178C6" stroke-width="2" opacity="0.3" stroke-dasharray="4,4"/>

  <!-- Person 4 - right -->
  <circle cx="380" cy="240" r="22" fill="#39d353" opacity="0.15"/>
  <circle cx="380" cy="240" r="15" fill="#39d353"/>
  <text x="372" y="245" font-family="monospace" font-size="11" fill="#fff">Go</text>
  <line x1="362" y1="232" x2="272" y2="198" stroke="#39d353" stroke-width="2" opacity="0.3" stroke-dasharray="4,4"/>

  <!-- Person 5 - bottom -->
  <circle cx="200" cy="310" r="22" fill="#c4b5fd" opacity="0.15"/>
  <circle cx="200" cy="310" r="15" fill="#7B1FA2"/>
  <text x="192" y="315" font-family="sans-serif" font-size="12" fill="#fff">Py</text>
  <line x1="210" y1="295" x2="242" y2="212" stroke="#7B1FA2" stroke-width="2" opacity="0.3" stroke-dasharray="4,4"/>

  <!-- Person 6 - bottom right -->
  <circle cx="320" cy="300" r="22" fill="#FF6F00" opacity="0.15"/>
  <circle cx="320" cy="300" r="15" fill="#FF6F00"/>
  <text x="310" y="305" font-family="monospace" font-size="11" fill="#fff">Rs</text>
  <line x1="308" y1="288" x2="258" y2="212" stroke="#FF6F00" stroke-width="2" opacity="0.3" stroke-dasharray="4,4"/>

  <!-- Floating elements -->
  <text x="85" y="80" font-family="monospace" font-size="16" fill="#18216d" opacity="0.15">01</text>
  <text x="400" y="80" font-family="monospace" font-size="16" fill="#18216d" opacity="0.15">10</text>
  <text x="70" y="340" font-family="monospace" font-size="16" fill="#18216d" opacity="0.15">11</text>
  <text x="410" y="340" font-family="monospace" font-size="16" fill="#18216d" opacity="0.15">00</text>
</svg>
